HIERARCHY
ROOT HipCenter
{
    OFFSET 0.0 0.0 -0.0
    CHANNELS 6 Xposition Yposition Zposition Zrotation Xrotation Yrotation
    JOINT Spine
    {
        OFFSET 0.0 9.69979190826416 0.0
        CHANNELS 3 Zrotation Xrotation Yrotation
        JOINT ShoulderCenter
        {
            OFFSET 0.0 29.569120407104492 0.0
            CHANNELS 3 Zrotation Xrotation Yrotation
            JOINT LeftShoulder
            {
                OFFSET 20.128520965576172 0.0 0.0
                CHANNELS 3 Zrotation Xrotation Yrotation
                JOINT LeftElbow
                {
                    OFFSET 26.887630462646484 0.0 0.0
                    CHANNELS 3 Zrotation Xrotation Yrotation
                    JOINT LeftWrist
                    {
                        OFFSET 23.090866088867188 0.0 0.0
                        CHANNELS 3 Zrotation Xrotation Yrotation
                        JOINT LeftHand
                        {
                            OFFSET 3.2948222160339355 0.0 0.0
                            CHANNELS 3 Zrotation Xrotation Yrotation
                            End Site
                            {
                                OFFSET 1.3179287910461426 0.0 0.0
                            }
                        }
                    }
                }
            }
            JOINT RightShoulder
            {
                OFFSET -20.128520965576172 0.0 0.0
                CHANNELS 3 Zrotation Xrotation Yrotation
                JOINT RightElbow
                {
                    OFFSET -26.887630462646484 0.0 0.0
                    CHANNELS 3 Zrotation Xrotation Yrotation
                    JOINT RightWrist
                    {
                        OFFSET -23.090866088867188 0.0 0.0
                        CHANNELS 3 Zrotation Xrotation Yrotation
                        JOINT RightHand
                        {
                            OFFSET -3.2948222160339355 0.0 0.0
                            CHANNELS 3 Zrotation Xrotation Yrotation
                            End Site
                            {
                                OFFSET -1.3179287910461426 0.0 0.0
                            }
                        }
                    }
                }
            }
            End Site
            {
                OFFSET 0.0 11.827648162841797 0.0
            }
        }
    }
    JOINT LeftHip
    {
        OFFSET 15.391853332519531 0.0 0.0
        CHANNELS 3 Zrotation Xrotation Yrotation
        JOINT LeftKnee
        {
            OFFSET 0.0 -41.92286682128906 0.0
            CHANNELS 3 Zrotation Xrotation Yrotation
            JOINT LeftAnkle
            {
                OFFSET 0.0 -41.430824279785156 0.0
                CHANNELS 3 Zrotation Xrotation Yrotation
                JOINT LeftFoot
                {
                    OFFSET 0.0 -12.031784057617188 0.0
                    CHANNELS 3 Zrotation Xrotation Yrotation
                    End Site
                    {
                        OFFSET 0.0 0.0 4.812714099884033
                    }
                }
            }
        }
    }
    JOINT RightHip
    {
        OFFSET -15.391853332519531 0.0 0.0
        CHANNELS 3 Zrotation Xrotation Yrotation
        JOINT RightKnee
        {
            OFFSET 0.0 -41.92286682128906 0.0
            CHANNELS 3 Zrotation Xrotation Yrotation
            JOINT RightAnkle
            {
                OFFSET 0.0 -41.430824279785156 0.0
                CHANNELS 3 Zrotation Xrotation Yrotation
                JOINT RightFoot
                {
                    OFFSET 0.0 -12.031784057617188 0.0
                    CHANNELS 3 Zrotation Xrotation Yrotation
                    End Site
                    {
                        OFFSET 0.0 0.0 4.812714099884033
                    }
                }
            }
        }
    }
}
MOTION
Frames: 5
Frame Time: 0.03333333333333333
-29.80000114440918 -91.39999389648438 100.39999389648438 1.9728486425092714e-06 -68.1986411598105 -9.733738306233583 1.7958428453261115 -28.408969959403958 -0.598496031351607 3.572944422868949e-07 -7.225913128257714e-07 0.5244236553023085 162.16068125226352 -41.51447841264183 -124.38401780146195 -6.311608825563927e-07 3.0605909002570216e-06 81.05752642868865 179.9999994844414 -25.1128250357755 -162.63612647482114 3.1805546814635168e-15 6.3611093629270335e-15 1.5902773407317582e-15 176.12022736905948 -8.708440118387237 166.9566723540974 1.9040974779609188e-06 1.0046925277668191e-06 -74.81819026910578 179.99999984417795 -63.3416749780708 151.83364850488542 0.0 0.0 0.0 -11.398248229056291 -64.15526863680755 12.340244453020581 117.09231993210008 60.44407446857121 -150.5760227275002 25.909377934936384 -36.9354898530176 27.977189908765613 1.7655625192200634e-31 6.3611093629270335e-15 -3.1805546814635168e-15 -64.13355381657333 -51.8070198414034 -114.0198772118586 -130.19476115496101 49.38730105075381 -174.51257423542845 -73.82857585968972 -7.566430833212724 -19.06328159471409 0.0 -5.9635400277440935e-15 0.0
-30.100000381469727 -91.29999542236328 100.30000305175781 1.383417544371685e-06 -68.19861519245576 -11.39740026775785 2.3096770320158804 -27.637258300349732 -0.6479513789634603 5.027380177247007e-08 -4.929660275456297e-06 -0.2077143177911786 164.98338841931587 -42.40032937390441 -120.08616194730831 -6.060177152339024e-06 3.9060396026357324e-07 82.24950259752336 -179.99999900156823 -30.315816932288303 -162.3762055937666 6.361109362927032e-15 6.361109362927032e-15 -4.7708320221952736e-15 173.7577715347683 -7.928969631986274 163.85737856668646 -2.8098365521152804e-07 2.312663385128698e-06 -75.52268735020934 -179.9999918547183 -61.51201824426189 153.06528257038048 0.0 0.0 0.0 -9.908105122530515 -63.890086344279936 13.5566837839702 116.89452265882717 60.42591279280926 -150.3512509195214 26.151372254041288 -38.06358337410349 28.892819997901764 0.0 0.0 1.5902773407317582e-15 -65.07610637813444 -52.26994449587071 -117.09531483561122 -129.68929784673102 47.85054634491593 -176.08011252841854 -72.2572756528156 -9.6993130054006 -23.388051685795254 0.0 6.7586786981099735e-15 0.0
-30.30000114440918 -91.19999694824219 100.30000305175781 1.548135450121187 -67.64456477223536 -11.402607385455369 2.277980584854309 -27.699865937815893 -0.7214653178250041 1.3533130007993685e-06 -5.710693227310916e-07 -1.6496752299158215 166.53266772493092 -43.31696522062473 -117.13043498315825 -3.247142257586067e-06 5.846394157818382e-07 83.23124349593573 179.99999985520952 -34.91783775529693 -161.6937745556719 0.0 -6.3611093629270335e-15 0.0 171.808393609011 -7.112033050265497 160.77686214405855 -1.8993595649010989e-06 3.173115278682255e-06 -75.97092849292532 -179.9999926339825 -59.280416327816354 152.7279231057378 0.0 -3.1805546814635168e-15 0.0 -9.214171345981567 -64.14903832270315 14.291173007846572 116.99386836054829 60.37771375268283 -150.88895558731554 27.913117355305488 -39.00442597958901 30.73875593542469 0.0 0.0 0.0 -67.59003579425065 -52.98560013833492 -120.46741603723432 -129.77378582223125 47.09582419590231 -176.99687508949856 -69.81494286580197 -10.91608939565748 -24.07143148902862 1.5902773407317584e-15 -6.3611093629270335e-15 8.827812596100317e-32
-30.599998474121094 -91.0 100.19999694824219 3.179842080356355 -68.16814454734501 -11.95409244283752 1.9431891060792268 -26.404224221184187 -0.7621800234044582 -5.405023664630698e-07 -1.5550201476883505e-06 -1.807415278072658 169.80575519367932 -43.761935908822444 -112.7608725379655 4.63992885541328e-06 3.7837430955623448e-06 84.43399497782057 179.99999825010605 -39.81937489948281 -161.68955103713014 -3.1805546814635168e-15 -6.3611093629270335e-15 1.5902773407317582e-15 170.3325061356072 -6.0402488570571045 158.85780138194409 1.0891677415904576e-06 1.6197075261805352e-06 -76.32131367074909 179.99999958914736 -62.02083371600009 153.64020898401407 0.0 0.0 0.0 -7.653700883311393 -63.44894962596322 16.445268751986543 116.93250820776083 60.329360515411445 -151.0064036545045 29.07307846322382 -39.6340772088584 32.09065042250954 1.5902773407317584e-15 -2.2069531490250793e-32 -1.5902773407317584e-15 -68.35354005604756 -54.25208210195385 -120.95029397095914 -129.82111666298647 46.89414134694268 -178.62550516513897 -67.4698460970508 -12.871451270618508 -26.779406719989826 1.590277340731758e-15 -6.361109362927033e-15 -1.590277340731758e-15
-30.799999237060547 -90.9000015258789 100.30000305175781 10.00801544849832 -69.22328589629652 -7.0276159340026885 -1.4344439107866123 -23.949721194145177 -1.3327375299208757 -4.947943915567446e-07 3.435023992816461e-07 0.885000800260306 176.45774097406064 -42.72597902538382 -104.39004462045305 2.328407395971694e-06 5.375893726798288e-08 86.12145830088795 179.99999975245527 -35.712803574935286 -162.89427410639013 -1.5902773407317584e-15 6.3611093629270335e-15 1.5902773407317584e-15 170.0671649240169 -4.633428992166249 160.26298420435816 -2.444120125204409e-06 1.1177815916999416e-06 -76.01599837556464 -179.99999699165647 -62.35913028744769 152.02866311528928 0.0 0.0 0.0 -9.182258490338553 -62.46750232917174 16.904118991464536 117.1979446325249 60.483835280367565 -151.34660605615238 30.02114511657707 -41.445031686696815 33.693578153537416 1.5902773407317588e-15 -6.3611093629270335e-15 6.3611093629270335e-15 -71.02472338508483 -54.778213347597536 -121.23004210583107 -130.09414555688173 46.79473196302586 -179.42806675760545 -64.150509657863 -14.714404243853844 -27.111604949195137 0.0 6.1623246953355635e-15 0.0
